<svg height="372.608" viewBox="0 0 500 372.608" width="500" xmlns="http://www.w3.org/2000/svg"><g fill="#ebebeb" transform="translate(0 -54.953)"><path d="m0 382.398h500v.25h-500z"/><path d="m428.222 398.494h21.679v.25h-21.679z"/><path d="m310.558 393.306h34.109v.25h-34.109z"/><path d="m396.586 389.208h44.525v.25h-44.525z"/><path d="m161.877 394.25h11.138v.25h-11.138z"/><path d="m114.585 394.25h38.389v.25h-38.389z"/><path d="m66.307 390.028h27.695v.25h-27.695z"/><path d="m237.014 337.8h-193.099a5.715 5.715 0 0 1 -5.708-5.708v-271.432a5.714 5.714 0 0 1 5.708-5.707h193.1a5.714 5.714 0 0 1 5.707 5.707v271.432a5.715 5.715 0 0 1 -5.708 5.708zm-193.099-282.6a5.463 5.463 0 0 0 -5.458 5.457v271.435a5.464 5.464 0 0 0 5.458 5.458h193.1a5.463 5.463 0 0 0 5.457-5.458v-271.432a5.463 5.463 0 0 0 -5.457-5.457z"/><path d="m453.31 337.8h-193.1a5.714 5.714 0 0 1 -5.707-5.708v-271.432a5.713 5.713 0 0 1 5.707-5.707h193.1a5.714 5.714 0 0 1 5.709 5.707v271.432a5.715 5.715 0 0 1 -5.709 5.708zm-193.098-282.6a5.463 5.463 0 0 0 -5.457 5.457v271.435a5.463 5.463 0 0 0 5.457 5.458h193.1a5.464 5.464 0 0 0 5.459-5.458v-271.432a5.464 5.464 0 0 0 -5.461-5.46z"/></g><g transform="translate(0 -54.953)"><g fill="#ebebeb"><path d="m216.073 200.878.45-13.141-8.068-2.636a78.307 78.307 0 0 0 -2.151-13.2l6.838-5.042-4.642-12.339-8.458.682a77.32 77.32 0 0 0 -7.042-11.35l4.382-7.313-9.009-9.611-7.563 3.872a82.474 82.474 0 0 0 -10.84-7.835l1.225-8.394-12-5.445-5.5 6.443a81.144 81.144 0 0 0 -13.016-3.05l-2.045-8.228-13.176-.451-2.6 8.068a81.238 81.238 0 0 0 -13.2 2.152l-5.078-6.805-12.342 4.611.682 8.46a80.428 80.428 0 0 0 -11.35 7.074l-7.27-4.38-9.646 8.971 3.871 7.6a77.368 77.368 0 0 0 -7.8 10.842l-8.392-1.259-5.479 11.995 6.476 5.5a78.45 78.45 0 0 0 -3.05 13.018l-8.264 2.076-.45 13.141 8.1 2.639a77.694 77.694 0 0 0 2.152 13.194l-6.837 5.042 4.645 12.345 8.458-.683a77.5 77.5 0 0 0 7.04 11.35l-4.38 7.309 9.009 9.612 7.561-3.873a80.606 80.606 0 0 0 10.84 7.836l-1.26 8.391 12 5.445 5.532-6.441a81.211 81.211 0 0 0 13.017 3.049l2.044 8.228 13.175.451 2.6-8.068a81.242 81.242 0 0 0 13.195-2.152l5.043 6.8 12.342-4.611-.647-8.457a82.466 82.466 0 0 0 11.35-7.076l7.279 4.382 9.645-8.973-3.87-7.6a77.441 77.441 0 0 0 7.8-10.841l8.392 1.26 5.479-12-6.477-5.5a77.494 77.494 0 0 0 3.049-13.016zm-88.8 42.571a52.16 52.16 0 1 1 53.9-50.328 52.147 52.147 0 0 1 -53.897 50.328z"/><path d="m440.957 157.423 3.314-3.094-1.324-2.61a26.965 26.965 0 0 0 2.693-3.743l2.9.438 1.877-4.142-2.229-1.9a26.665 26.665 0 0 0 1.051-4.485l2.852-.715.147-4.54-2.788-.9a28.486 28.486 0 0 0 -.733-4.553l2.346-1.748-1.6-4.254-2.912.231a28 28 0 0 0 -2.43-3.918l1.508-2.505-3.1-3.323-2.6 1.334a27.991 27.991 0 0 0 -3.742-2.694l.421-2.9-4.134-1.885-1.9 2.229a27.721 27.721 0 0 0 -4.492-1.043l-.707-2.843-4.54-.164-.908 2.8a26.65 26.65 0 0 0 -4.546.742l-1.739-2.354-4.261 1.59.238 2.919a27.16 27.16 0 0 0 -3.918 2.431l-2.521-1.509-3.314 3.1 1.332 2.619a26.828 26.828 0 0 0 -2.693 3.742l-2.9-.438-1.878 4.143 2.229 1.9a26.754 26.754 0 0 0 -1.051 4.484l-2.851.715-.147 4.541 2.788.9a27.653 27.653 0 0 0 .732 4.554l-2.353 1.739 1.6 4.253 2.919-.222a27.91 27.91 0 0 0 2.431 3.918l-1.508 2.505 3.1 3.323 2.6-1.333a27.944 27.944 0 0 0 3.742 2.693l-.429 2.889 4.134 1.885 1.9-2.22a28.362 28.362 0 0 0 4.493 1.042l.706 2.843 4.54.164.908-2.8a26.633 26.633 0 0 0 4.546-.741l1.739 2.353 4.262-1.589-.239-2.92a26.888 26.888 0 0 0 3.918-2.43zm-23.616-19.131a6.471 6.471 0 1 1 9.144.313 6.471 6.471 0 0 1 -9.144-.313z"/><path d="m319.989 292.336-10.341-7.136c0-.008 0-.017-.006-.025a56.779 56.779 0 0 0 -4.159-10.772l2.65-10.4-15-16.065-10.559 1.933a56.854 56.854 0 0 0 -10.454-4.882.269.269 0 0 1 -.026-.009l-6.42-10.809-21.964-.753-7.142 10.341-.041.01a56.854 56.854 0 0 0 -10.76 4.154l-10.393-2.649-16.064 15 1.929 10.538-.005.009a55.707 55.707 0 0 0 -4.885 10.494l-10.808 6.417-.753 21.965 10.351 7.148a55.01 55.01 0 0 0 4.147 10.818l-2.642 10.366 15 16.063 10.493-1.92a57.346 57.346 0 0 0 10.546 4.893h.009l6.409 10.794 21.965.753 7.137-10.334a57.236 57.236 0 0 0 10.851-4.158l10.345 2.636 16.064-15-1.929-10.54a55.715 55.715 0 0 0 4.885-10.495l10.812-6.421zm-68.452 33.39a24.715 24.715 0 1 1 25.546-23.854 24.722 24.722 0 0 1 -25.546 23.854z"/><path d="m343.548 229.954h-.072l-17.317-.593a2.11 2.11 0 0 1 -1.743-1.032l-4.663-7.852a47.513 47.513 0 0 1 -7.282-3.378l-7.507 1.373a2.1 2.1 0 0 1 -1.923-.636l-11.826-12.663a2.115 2.115 0 0 1 -.5-1.963l1.888-7.41a45.937 45.937 0 0 1 -2.859-7.47l-7.531-5.2a2.113 2.113 0 0 1 -.911-1.81l.591-17.32a2.108 2.108 0 0 1 1.032-1.743l7.866-4.671a46.289 46.289 0 0 1 3.37-7.248l-1.38-7.533a2.114 2.114 0 0 1 .636-1.923l12.665-11.827a2.112 2.112 0 0 1 1.963-.5l7.435 1.9a46.934 46.934 0 0 1 7.449-2.871l5.2-7.525a2.042 2.042 0 0 1 1.809-.91l17.317.593a2.109 2.109 0 0 1 1.743 1.033l4.672 7.866a47.005 47.005 0 0 1 7.227 3.372l7.554-1.384a2.113 2.113 0 0 1 1.924.636l11.825 12.659a2.114 2.114 0 0 1 .5 1.963l-1.9 7.437a46.892 46.892 0 0 1 2.871 7.446l7.525 5.2a2.112 2.112 0 0 1 .911 1.809l-.593 17.319a2.111 2.111 0 0 1 -1.033 1.743l-7.869 4.673a46.225 46.225 0 0 1 -3.366 7.243l1.379 7.536a2.109 2.109 0 0 1 -.636 1.923l-12.659 11.821a2.105 2.105 0 0 1 -1.963.5l-7.4-1.886a47.312 47.312 0 0 1 -7.489 2.87l-5.191 7.519a2.114 2.114 0 0 1 -1.739.914zm-16.09-4.775 15.009.514 4.971-7.2a2.111 2.111 0 0 1 1.189-.839 43.1 43.1 0 0 0 8.154-3.126l.014-.007a2.1 2.1 0 0 1 1.458-.153l7.039 1.793 10.976-10.249-1.313-7.174a2.115 2.115 0 0 1 .268-1.47 41.935 41.935 0 0 0 3.65-7.834 2.12 2.12 0 0 1 .942-1.172l7.522-4.468.515-15.01-7.2-4.975a2.1 2.1 0 0 1 -.8-1.069c-.018-.053-.035-.111-.049-.169a42.575 42.575 0 0 0 -3.114-8.054 2.115 2.115 0 0 1 -.163-1.478l1.8-7.078-10.25-10.979-7.189 1.317a2.106 2.106 0 0 1 -1.462-.264 42.807 42.807 0 0 0 -7.846-3.666 2.338 2.338 0 0 1 -.441-.205 2.108 2.108 0 0 1 -.709-.721l-4.472-7.529-15.01-.515-4.974 7.2a2.111 2.111 0 0 1 -1.243.853 42.8 42.8 0 0 0 -8.054 3.112 2.107 2.107 0 0 1 -1.477.163l-7.075-1.8-10.977 10.251 1.313 7.173a2.111 2.111 0 0 1 -.189 1.324c-.029.057-.06.114-.1.17a41.924 41.924 0 0 0 -3.654 7.859 2.116 2.116 0 0 1 -.917 1.122l-7.528 4.471-.514 15.009 7.21 4.979a2.105 2.105 0 0 1 .838 1.187 41.676 41.676 0 0 0 3.11 8.117 2.069 2.069 0 0 1 .171.454 2.1 2.1 0 0 1 0 1.033l-1.8 7.054 10.25 10.975 7.138-1.305a2.118 2.118 0 0 1 1.455.26 43.347 43.347 0 0 0 7.887 3.665 2.107 2.107 0 0 1 1.175.933zm9.27-18.965c-.37 0-.739-.007-1.111-.02a31.541 31.541 0 1 1 1.111.02zm-.038-59.094a27.46 27.46 0 1 0 .951.017c-.318-.011-.636-.017-.951-.017z"/></g><path d="m383.439 105.323-7.174-1.927-1.926-7.173 2.809-2.809 2.963 6.136 6.137 2.963z" fill="#e0e0e0"/><path d="m383.885 100.521a3.347 3.347 0 1 0 -4.735-4.733l3.568-5.354 4.786 2.42 1.049 5.028z" fill="#e0e0e0"/><path d="m376.582 93.981 5.257-5.257 7.173 1.926 1.926 7.174-5.256 5.257-7.174-1.927zm9.545 4.3a3.347 3.347 0 1 0 -4.734-.01 3.36 3.36 0 0 0 4.734.008z" fill="#f0f0f0"/><path d="m90.221 296.708 3.849-1.034 1.034-3.849-1.504-1.507-1.59 3.293-3.293 1.59z" fill="#e0e0e0"/><path d="m89.982 294.131a1.8 1.8 0 1 1 2.54-2.54l-1.914-2.873-2.568 1.3-.563 2.7z" fill="#e0e0e0"/><path d="m93.9 290.622-2.82-2.822-3.85 1.033-1.033 3.85 2.82 2.821 3.85-1.034zm-5.123 2.306a1.8 1.8 0 1 1 2.541-.005 1.8 1.8 0 0 1 -2.54.005z" fill="#f0f0f0"/><path d="m76.363 85.662 3.194 3.195a2.145 2.145 0 0 0 3.025 0 2.145 2.145 0 0 0 0-3.025l-3.195-3.194a2.144 2.144 0 0 0 -3.024 0 2.144 2.144 0 0 0 0 3.024z" fill="#f0f0f0"/><path d="m74.112 77.705a4.455 4.455 0 1 1 -2.955 5.786 4.6 4.6 0 0 1 2.955-5.786z" fill="#e0e0e0"/><path d="m0 0h1.37v10.102h-1.37z" fill="#f0f0f0" transform="matrix(-.338 -.941 .941 -.338 71.093 84.242)"/></g><ellipse cx="250" cy="361.285" fill="#f5f5f5" rx="193.889" ry="11.323"/><g transform="translate(0 -54.953)"><g fill="#263238"><path d="m86.716 120.646q-1.5-6.6 1.341-11.123t9.414-6.009q6.733-1.532 11.2 1.256t5.947 9.3a17.044 17.044 0 0 1 .171 8.118 11.634 11.634 0 0 1 -3.529 5.757 15.577 15.577 0 0 1 -7.116 3.388 17.689 17.689 0 0 1 -7.884.264 11.646 11.646 0 0 1 -5.9-3.5 15.654 15.654 0 0 1 -3.644-7.451zm8.344-1.857q.929 4.086 2.852 5.524a5.895 5.895 0 0 0 8.3-1.847q1.074-2.083.046-6.61-.867-3.809-2.8-5.217a5.388 5.388 0 0 0 -4.567-.809 5.2 5.2 0 0 0 -3.643 2.705q-1.126 2.133-.188 6.254z"/><path d="m118.593 117.347a10.023 10.023 0 0 1 1.343-8.055 11.555 11.555 0 0 1 7.492-4.751q5.871-1.335 9.644 1.387a10.917 10.917 0 0 1 2.635 14.274q-2.336 3.559-7.617 4.76a11.891 11.891 0 0 1 -8.162-.661 9.844 9.844 0 0 1 -5.335-6.954zm7.5-1.724a6.049 6.049 0 0 0 1.936 3.624 3.556 3.556 0 0 0 5.322-1.191 6.253 6.253 0 0 0 .141-4.192 5.913 5.913 0 0 0 -1.909-3.544 3.348 3.348 0 0 0 -2.877-.652 3.476 3.476 0 0 0 -2.418 1.876 5.974 5.974 0 0 0 -.188 4.079z"/><path d="m148.585 128.566-6.133-26.976 7.011-1.59.656 2.889a9.583 9.583 0 0 1 2.108-3.072 7.846 7.846 0 0 1 3.428-1.688 7.191 7.191 0 0 1 6.745 1.62 12.739 12.739 0 0 1 3.83 6.929q1.11 4.877-.645 7.974a7.837 7.837 0 0 1 -5.323 3.91 8.4 8.4 0 0 1 -3.29.128 7.684 7.684 0 0 1 -2.945-1.168l2.121 9.329zm3.609-18.857a5.271 5.271 0 0 0 1.757 3.219 3.2 3.2 0 0 0 2.721.562 2.8 2.8 0 0 0 1.945-1.574 5.987 5.987 0 0 0 .053-3.854 5.563 5.563 0 0 0 -1.713-3.277 2.883 2.883 0 0 0 -2.5-.6 3.1 3.1 0 0 0 -2.137 1.666 5.727 5.727 0 0 0 -.126 3.858z"/><path d="m169.435 110.3 7.275-2.39a3.77 3.77 0 0 0 1.719 1.6 3.941 3.941 0 0 0 2.338.068 3.832 3.832 0 0 0 2.19-1.175 1.472 1.472 0 0 0 .372-1.341 1.4 1.4 0 0 0 -1.13-1.056 15.847 15.847 0 0 0 -3.4-.041 34.486 34.486 0 0 1 -5.706-.026 5.862 5.862 0 0 1 -3-1.377 5.214 5.214 0 0 1 -1.755-2.907 5.285 5.285 0 0 1 .366-3.582 6.855 6.855 0 0 1 2.617-2.79 16.849 16.849 0 0 1 5.125-1.89 18.738 18.738 0 0 1 5.283-.639 6.9 6.9 0 0 1 3.154 1.024 8.879 8.879 0 0 1 2.54 2.616l-6.944 2.315a2.48 2.48 0 0 0 -1.233-1.171 3.844 3.844 0 0 0 -2.269-.105 3.112 3.112 0 0 0 -1.747.87 1.379 1.379 0 0 0 -.331 1.226 1.193 1.193 0 0 0 .983.916 12.152 12.152 0 0 0 3.352-.066 22.464 22.464 0 0 1 5.824-.086 6.279 6.279 0 0 1 3.277 1.516 5.421 5.421 0 0 1 1.665 2.854 6.2 6.2 0 0 1 -.273 3.522 7.1 7.1 0 0 1 -2.642 3.279 15.913 15.913 0 0 1 -5.774 2.308q-5.355 1.218-7.974.206a7.038 7.038 0 0 1 -3.902-3.678z"/><path d="m193.849 85.566 8.208-.046.036 6.3-1.514 12.671-5.076.028-1.619-12.653zm.4 20.888 7.661-.043.038 6.774-7.661.043z"/></g><g><path d="m128.68 171.581a.5.5 0 0 1 -.181-.034c-4.5-1.743-7.193-3.446-8.592-5.492a5.174 5.174 0 0 1 -3.232-.445 6.435 6.435 0 0 1 -2.78-2.622 2.557 2.557 0 0 1 -2.426.375 6.17 6.17 0 0 1 -2.952-2.411 2.284 2.284 0 0 1 -1.552.43c-2.973-.242-7-6.16-7.291-12.467a.5.5 0 0 1 1-.045c.274 5.985 4.11 11.331 6.373 11.515a1.266 1.266 0 0 0 .931-.28 12.267 12.267 0 0 1 -1.022-9.412c.86-3 1.619-4.179 2.532-3.962 1.722.429 1.5 6.972.584 11.289a6.125 6.125 0 0 1 -.845 2.182 5.412 5.412 0 0 0 2.543 2.207 1.581 1.581 0 0 0 1.674-.345c-.786-1.936-.949-4.575.117-7.939 1.4-4.429 1.969-4.549 2.307-4.62a.661.661 0 0 1 .645.22c.923 1.043-.18 7.921-1.344 11.324a5.016 5.016 0 0 1 -.557 1.157 5.477 5.477 0 0 0 2.493 2.5 4.37 4.37 0 0 0 2.273.431c-.09-.19-.171-.381-.244-.577-.792-2.147-.405-4.626 1.185-7.578 1.055-1.958 1.915-2.871 2.707-2.872a1.109 1.109 0 0 1 .987.662c.872 1.61.24 6.919-1.483 9.554a3.914 3.914 0 0 1 -1.618 1.4c1.34 1.761 3.884 3.314 7.949 4.889a.5.5 0 0 1 -.181.966zm-5.654-16.47s-.566 0-1.827 2.347c-1.447 2.685-1.815 4.9-1.128 6.757a5.459 5.459 0 0 0 .3.67 2.956 2.956 0 0 0 1.321-1.1c1.4-2.14 2.071-6.538 1.55-8.257-.106-.356-.215-.417-.216-.417zm-7.172-4.213a22.591 22.591 0 0 0 -1.34 3.53 11.324 11.324 0 0 0 -.385 6.548c.033-.084.064-.168.093-.251a33.106 33.106 0 0 0 1.632-9.825zm-6.586-3.15c-.169.155-.655.785-1.352 3.221a11.25 11.25 0 0 0 .727 8.246 6.4 6.4 0 0 0 .45-1.4c1.037-4.915.735-9.356.175-10.067z" fill="#263238"/><path d="m166.7 224a9.008 9.008 0 0 1 -4.561-1.188.5.5 0 1 1 .506-.864c3.567 2.095 8.178.633 9.127-.892a.869.869 0 0 0 .147-.671 8.141 8.141 0 0 1 -5.131-1.466c-2.545-1.591-2.741-2.063-2.725-2.442a.615.615 0 0 1 .341-.524c1-.5 5.505 1.574 7.385 2.81a3.251 3.251 0 0 1 .622.522 3.536 3.536 0 0 0 1.9-1.145 2.863 2.863 0 0 0 .588-1.122c-.066.009-.133.017-.2.024-1.6.161-3.2-.525-4.911-2.1-1.174-1.085-1.63-1.833-1.478-2.426a.906.906 0 0 1 .718-.654c1.384-.343 4.8 1.112 6.194 2.642a2.8 2.8 0 0 1 .641 1.184c1.3-.614 2.685-1.989 4.319-4.272a.5.5 0 0 1 .814.582c-1.89 2.64-3.465 4.136-5.047 4.746a3.718 3.718 0 0 1 -.869 2.04 4.535 4.535 0 0 1 -2.181 1.412 1.842 1.842 0 0 1 -.28 1.391c-.843 1.351-3.261 2.413-5.919 2.413zm-.888-6.936c.336.249.818.577 1.506 1.007a8.079 8.079 0 0 0 3.6 1.323 24.827 24.827 0 0 0 -5.108-2.333zm3.49-4.248a4.321 4.321 0 0 0 1.166 1.387c1.487 1.374 2.838 1.985 4.131 1.844a3.211 3.211 0 0 0 .32-.048 1.832 1.832 0 0 0 -.434-.825c-1.409-1.545-4.502-2.522-5.185-2.361z" fill="#263238"/><path d="m179.942 222.625-15.582 2.83-14.147-77.212-30.063 5.457-48.989 87 5.26 28.708 62.837-11.408 4.3 23.481 30.064-5.462-4.3-23.48 15.582-2.831zm-78.848 14.323 25.959-45.568 7.243 39.537z" fill="#407bff"/></g><g><path d="m305.43 142.992a58.784 58.784 0 0 0 -3.2-14.219 46.044 46.044 0 0 0 -6.99-12.189 40.4 40.4 0 0 0 -12.7-10.366q-8.04-4.392-21.222-6.112-27.438-3.576-42.782 9.74t-20.2 51.011a139.207 139.207 0 0 0 -.976 28.345q.995 13.013 4.777 20.933a43.77 43.77 0 0 0 14.649 17.772q9.47 6.642 25.95 8.791 29.4 3.83 43.569-11.288t18.8-51.1a129.307 129.307 0 0 0 .325-31.318z" fill="#407bff"/><path d="m251.766 226.433c-2.405-.082-4.965-.3-7.608-.644-9.158-1.189-16.237-3.509-21.058-6.889a32.633 32.633 0 0 1 -10.992-13.4l-.049-.1c-1.923-4.023-3.179-9.753-3.735-17.028a128.991 128.991 0 0 1 .918-26.1c3.569-27.721 10.941-39.287 16.5-44.108 6.478-5.62 15.221-8.16 26.73-7.766 2.358.081 4.855.292 7.421.626 7.387.961 13.231 2.6 17.371 4.857a29.751 29.751 0 0 1 9.309 7.486 35.308 35.308 0 0 1 5.354 9.268 48.188 48.188 0 0 1 2.566 11.558 119.1 119.1 0 0 1 -.293 28.707c-2.773 21.538-8.13 36.672-15.92 44.981-5.779 6.165-14.452 8.96-26.514 8.547z" fill="#263238"/><path d="m271.336 143.287.13-3.788-2.325-.76a22.6 22.6 0 0 0 -.621-3.8l1.972-1.454-1.339-3.557-2.438.2a22.416 22.416 0 0 0 -2.03-3.272l1.263-2.108-2.6-2.77-2.179 1.116a23.82 23.82 0 0 0 -3.125-2.258l.353-2.42-3.458-1.569-1.584 1.857a23.345 23.345 0 0 0 -3.752-.879l-.59-2.372-3.8-.13-.75 2.326a23.367 23.367 0 0 0 -3.8.62l-1.463-1.969-3.557 1.329.2 2.438a23.319 23.319 0 0 0 -3.271 2.039l-2.1-1.262-2.781 2.586 1.116 2.189a22.264 22.264 0 0 0 -2.248 3.125l-2.419-.363-1.579 3.458 1.866 1.585a22.634 22.634 0 0 0 -.879 3.752l-2.382.6-.129 3.788 2.335.76a22.337 22.337 0 0 0 .62 3.8l-1.971 1.454 1.339 3.558 2.438-.2a22.3 22.3 0 0 0 2.03 3.272l-1.263 2.108 2.6 2.77 2.18-1.116a23.224 23.224 0 0 0 3.124 2.258l-.363 2.419 3.458 1.57 1.6-1.857a23.319 23.319 0 0 0 3.752.879l.589 2.372 3.8.13.75-2.326a23.373 23.373 0 0 0 3.8-.62l1.454 1.961 3.558-1.329-.187-2.438a23.765 23.765 0 0 0 3.272-2.039l2.1 1.263 2.78-2.587-1.115-2.189a22.346 22.346 0 0 0 2.248-3.125l2.419.363 1.579-3.458-1.867-1.585a22.278 22.278 0 0 0 .879-3.752zm-25.6 12.271a15.035 15.035 0 1 1 15.536-14.507 15.032 15.032 0 0 1 -15.531 14.507z" fill="#407bff"/><path d="m287.123 212.865.274-2.553-1.535-.626a15.7 15.7 0 0 0 -.227-2.594l1.4-.889-.712-2.47-1.662.014a14.815 14.815 0 0 0 -1.2-2.311l.948-1.361-1.6-2-1.532.638a15.162 15.162 0 0 0 -1.991-1.672l.372-1.626-2.251-1.235-1.176 1.188a14.867 14.867 0 0 0 -2.477-.787l-.284-1.636-2.553-.286-.626 1.534a16.051 16.051 0 0 0 -2.594.239l-.888-1.411-2.471.723.014 1.662a16.032 16.032 0 0 0 -2.312 1.2l-1.359-.96-2 1.605.638 1.532a16.2 16.2 0 0 0 -1.671 1.99l-1.615-.36-1.235 2.252 1.177 1.163a16.047 16.047 0 0 0 -.788 2.49l-1.636.271-.274 2.554 1.534.637a14.678 14.678 0 0 0 .227 2.583l-1.411.888.723 2.471h1.662a15.356 15.356 0 0 0 1.2 2.3l-.959 1.359 1.6 2.009 1.544-.649a15.3 15.3 0 0 0 1.99 1.672l-.371 1.625 2.251 1.236 1.175-1.177a15.854 15.854 0 0 0 2.478.775l.283 1.637 2.553.286.627-1.535a16.061 16.061 0 0 0 2.594-.238l.888 1.411 2.459-.724v-1.661a16.127 16.127 0 0 0 2.312-1.2l1.348.958 2.009-1.6-.65-1.532a16.375 16.375 0 0 0 1.683-1.99l1.615.359 1.235-2.251-1.177-1.164a16.23 16.23 0 0 0 .776-2.478zm-12.874-.991a4.462 4.462 0 1 1 -1.771-6.052 4.472 4.472 0 0 1 1.771 6.052z" fill="#407bff" opacity=".3"/><path d="m301.29 169.649-2.981-2.058v-.007a16.389 16.389 0 0 0 -1.2-3.1l.764-3-4.324-4.631-3.043.557a16.4 16.4 0 0 0 -3.014-1.41h-.008l-1.85-3.116-6.332-.217-2.058 2.981h-.012a16.349 16.349 0 0 0 -3.1 1.2l-3-.764-4.63 4.324.556 3.037a16.045 16.045 0 0 0 -1.408 3.025l-3.115 1.85-.217 6.331 2.983 2.06a15.883 15.883 0 0 0 1.2 3.119l-.761 2.988 4.323 4.63 3.025-.554a16.473 16.473 0 0 0 3.04 1.411l1.848 3.112 6.331.217 2.057-2.979a16.537 16.537 0 0 0 3.128-1.2l2.982.76 4.63-4.324-.556-3.038a16.043 16.043 0 0 0 1.408-3.025l3.117-1.851zm-19.731 9.625a7.124 7.124 0 1 1 7.363-6.876 7.126 7.126 0 0 1 -7.363 6.876z" fill="#fff"/><g fill="#407bff"><path d="m323.042 119.124.522-1.256a6.2 6.2 0 0 0 1.046-.685l1.16.044 1.36-1.952-.444-1.074a6.115 6.115 0 0 0 .279-1.217l1-.925-.419-2.342-1.257-.521a6.078 6.078 0 0 0 -.684-1.044l.045-1.161-1.953-1.359-1.071.443a6.034 6.034 0 0 0 -1.222-.279l-.924-1-2.342.419-.522 1.258a5.964 5.964 0 0 0 -1.051.684l-1.157-.044-1.36 1.952.442 1.067a6.219 6.219 0 0 0 -.279 1.228l-1 .923.419 2.342 1.256.521a6.217 6.217 0 0 0 .687 1.054l-.044 1.155 1.952 1.36 1.072-.444a6.026 6.026 0 0 0 1.221.279l.925 1zm-5.088-6.487a2.675 2.675 0 1 1 3.1 2.163 2.676 2.676 0 0 1 -3.1-2.163z"/><path d="m295.607 112.489-.763-.644a19.917 19.917 0 0 1 6.008-5.03l.463.887a19.136 19.136 0 0 0 -5.708 4.787z"/><path d="m303.591 106.8-.395-.92a23.909 23.909 0 0 1 11.739-1.88l-.093 1a22.769 22.769 0 0 0 -11.251 1.8z"/><path d="m301.7 113.72-.826-.563a16.792 16.792 0 0 1 9.871-6.388l.194.98a15.719 15.719 0 0 0 -9.239 5.971z"/></g><path d="m235.343 209.957a.5.5 0 0 1 -.359-.152l-2.1-2.161a17.673 17.673 0 0 1 -3.145-.586l-3.268 1.441a.5.5 0 0 1 -.478-.04l-5.475-3.63a.5.5 0 0 1 -.224-.425l.055-3.563a17.265 17.265 0 0 1 -1.767-2.677l-2.805-1.088a.5.5 0 0 1 -.309-.366l-1.3-6.438a.5.5 0 0 1 .142-.458l2.161-2.1a17.962 17.962 0 0 1 .584-3.15l-1.44-3.263a.5.5 0 0 1 .041-.479l3.629-5.475a.462.462 0 0 1 .425-.224l3.561.055a17.557 17.557 0 0 1 2.679-1.765l1.088-2.807a.5.5 0 0 1 .367-.309l6.437-1.306a.509.509 0 0 1 .459.142l2.094 2.159a17.887 17.887 0 0 1 3.153.585l3.263-1.439a.505.505 0 0 1 .478.041l5.475 3.629a.5.5 0 0 1 .223.425l-.054 3.566a17.2 17.2 0 0 1 1.764 2.674l2.807 1.089a.5.5 0 0 1 .31.366l1.305 6.438a.5.5 0 0 1 -.142.459l-2.162 2.1a17.951 17.951 0 0 1 -.585 3.143l1.441 3.269a.5.5 0 0 1 -.04.478l-3.631 5.476a.523.523 0 0 1 -.424.224l-3.563-.054a17.6 17.6 0 0 1 -2.676 1.759l-1.09 2.812a.506.506 0 0 1 -.367.31l-6.438 1.305a.476.476 0 0 1 -.099.01zm-5.637-3.93a.486.486 0 0 1 .141.021 16.745 16.745 0 0 0 3.311.616.5.5 0 0 1 .318.151l2.035 2.1 5.9-1.2 1.06-2.733a.5.5 0 0 1 .235-.262 16.583 16.583 0 0 0 2.815-1.851.43.43 0 0 1 .324-.112l3.47.052 3.327-5.019-1.4-3.184a.494.494 0 0 1 -.022-.341 17.009 17.009 0 0 0 .615-3.311.5.5 0 0 1 .15-.318l2.1-2.036-1.2-5.9-2.727-1.057a.494.494 0 0 1 -.266-.243 16.266 16.266 0 0 0 -1.851-2.805.5.5 0 0 1 -.114-.325l.053-3.474-5.019-3.327-3.176 1.4a.513.513 0 0 1 -.341.024 16.965 16.965 0 0 0 -3.323-.617.5.5 0 0 1 -.317-.149l-2.034-2.1-5.9 1.2-1.057 2.726a.5.5 0 0 1 -.236.263 16.548 16.548 0 0 0 -2.817 1.854.461.461 0 0 1 -.325.115l-3.47-.054-3.326 5.02 1.4 3.179a.5.5 0 0 1 -.01.426 17.387 17.387 0 0 0 -.583 3.233.5.5 0 0 1 -.15.318l-2.1 2.035 1.2 5.9 2.726 1.057a.5.5 0 0 1 .273.257 16.387 16.387 0 0 0 1.844 2.791.509.509 0 0 1 .116.327l-.054 3.471 5.02 3.329 3.183-1.4a.505.505 0 0 1 .202-.047zm4.918-3.235a13.324 13.324 0 0 1 -11.092-20.681 13.326 13.326 0 1 1 11.091 20.681zm-10.258-20.128a12.326 12.326 0 1 0 17.087-3.469 12.236 12.236 0 0 0 -17.087 3.469z" fill="#fff"/></g><g><path d="m425.826 231.65-15.694-2.119 10.38-77.808-30.281-4.086-73.453 67.626-3.86 28.93 63.292 8.541-3.157 23.666 30.282 4.087 3.156-23.662 15.7 2.118zm-79.418-10.718 38.758-35.332-5.316 39.841z" fill="#407bff"/><g fill="#263238"><path d="m394.134 279.741a.569.569 0 0 1 -.091-.008.5.5 0 0 1 -.4-.582l23.326-127.929a.511.511 0 0 1 .581-.4.5.5 0 0 1 .4.582l-23.326 127.93a.5.5 0 0 1 -.49.407z"/><path d="m414.831 153.37a.819.819 0 1 1 -.791-.847.82.82 0 0 1 .791.847z"/><path d="m411.5 170.671a.819.819 0 1 1 -.791-.847.821.821 0 0 1 .791.847z"/><path d="m408.166 187.971a.819.819 0 1 1 -.791-.847.819.819 0 0 1 .791.847z"/><path d="m401.613 205.982a.819.819 0 1 1 -.791-.847.82.82 0 0 1 .791.847z"/><path d="m401.5 222.573a.819.819 0 1 1 -.791-.847.819.819 0 0 1 .791.847z"/><path d="m398.169 239.874a.819.819 0 1 1 -.791-.847.821.821 0 0 1 .791.847z"/><path d="m394.836 257.175a.819.819 0 1 1 -.79-.848.819.819 0 0 1 .79.848z"/><path d="m391.5 274.475a.819.819 0 1 1 -.791-.847.819.819 0 0 1 .791.847z"/><path d="m400.794 206.454a.5.5 0 0 1 -.1-.989l2.483-.533a.5.5 0 1 1 .21.978l-2.484.533a.534.534 0 0 1 -.109.011z"/><path d="m409.085 197.241a83.3 83.3 0 0 0 -2.991 9.361c-.754 3.532-.8 11.424-.8 11.424"/><path d="m405.3 218.526a.5.5 0 0 1 -.5-.5c0-.324.054-7.984.81-11.526a82.734 82.734 0 0 1 3.013-9.436.5.5 0 0 1 .934.359 83.227 83.227 0 0 0 -2.969 9.286c-.734 3.442-.788 11.245-.788 11.323a.5.5 0 0 1 -.5.494z"/></g></g><g><path d="m222.452 304.841c1.389-22.4-1.166-63.126 40.944-57.736 45.136 5.778 32.223 58.556 32.223 58.556z" fill="#263238"/><circle cx="251.513" cy="273" fill="#fff" r="18.375"/><path d="m253.927 254.654c-8.7-1.487-18.01 4.929-18.927 11.429l34.507 3.173c-1.216-7.409-8.674-13.423-15.58-14.602z" fill="#263238"/><path d="m265.576 272.543c-.247 4.8-2.865 8.574-5.848 8.421s-5.2-4.172-4.954-8.976 2.864-8.574 5.847-8.421 5.202 4.172 4.955 8.976z" fill="#263238"/><path d="m251.514 292.375a19.375 19.375 0 1 1 19.375-19.375 19.4 19.4 0 0 1 -19.375 19.375zm0-36.75a17.375 17.375 0 1 0 17.375 17.375 17.4 17.4 0 0 0 -17.375-17.375z" fill="#407bff"/><path d="m290.485 304.277a.583.583 0 0 1 -.117-.013.5.5 0 0 1 -.37-.6c.033-.135 3.22-13.694-.089-27.4a.5.5 0 1 1 .971-.235c3.368 13.951.124 27.735.091 27.873a.5.5 0 0 1 -.486.375z" fill="#fff" opacity=".3"/><path d="m287.7 268.759a.5.5 0 0 1 -.455-.292 35.323 35.323 0 0 0 -4.741-7.657.5.5 0 1 1 .774-.633 36.334 36.334 0 0 1 4.876 7.874.5.5 0 0 1 -.454.708z" fill="#fff" opacity=".3"/><path d="m128.735 409.918c-.125 0-.248 0-.372-.005a5 5 0 1 1 .274-10h.1c2.889 0 9.839-3.51 24.378-26.43a5 5 0 0 1 7.509-1.09 206.935 206.935 0 0 0 37.143 25.477 5 5 0 0 1 -4.525 8.917 213.261 213.261 0 0 1 -34.8-23.147c-12.188 18.325-21.231 26.278-29.707 26.278z" fill="#263238"/><path d="m159.67 371.5a3.113 3.113 0 0 1 -.428-.03 3 3 0 0 1 -2.545-3.395c.711-4.976-.171-23.626-6.475-38.126a3 3 0 0 1 1.062-3.676c13.7-9.334 42.876-10.451 44.112-10.494a3 3 0 0 1 .209 6c-.271.01-25.78.989-38.888 8.2 5.584 14.438 6.849 32.436 5.919 38.947a3 3 0 0 1 -2.966 2.574z" fill="#263238"/><path d="m164.71 367.616c-2-4.706-10.988-4.172-16.268-.138-2.822 2.155-6.641 8.64-7.042 10.991a3.54 3.54 0 0 0 4.023 4.238c3.447-.3 8.181-5.309 8.181-5.309-3.149 3.088.914 5.267 6.977.8 3.363-2.476 6.363-5.312 4.129-10.582z" fill="#407bff"/><path d="m336.706 306.161a.517.517 0 0 1 -.139-.019.5.5 0 0 1 -.342-.619c1.332-4.639 2.787-7.474 4.7-9.05a5.2 5.2 0 0 1 .153-3.259 6.437 6.437 0 0 1 2.362-3 2.556 2.556 0 0 1 -.591-2.382 6.174 6.174 0 0 1 2.136-3.156 2.3 2.3 0 0 1 -.567-1.508c-.025-2.982 5.508-7.525 11.763-8.379a.49.49 0 0 1 .563.428.5.5 0 0 1 -.429.562c-5.937.811-10.916 5.11-10.9 7.38a1.306 1.306 0 0 0 .362.9 12.256 12.256 0 0 1 9.283-1.864c3.069.587 4.317 1.236 4.172 2.167-.272 1.753-6.809 2.116-11.19 1.594a6.143 6.143 0 0 1 -2.25-.645 5.4 5.4 0 0 0 -1.969 2.73 1.579 1.579 0 0 0 .5 1.636c1.857-.957 4.47-1.358 7.916-.6 4.537 1 4.707 1.554 4.808 1.883a.66.66 0 0 1 -.161.662c-.956 1.013-7.906.532-11.4-.323a5.047 5.047 0 0 1 -1.2-.451 5.477 5.477 0 0 0 -2.268 2.708 4.323 4.323 0 0 0 -.225 2.3c.18-.107.363-.2.551-.3 2.069-.981 4.572-.817 7.654.5 2.045.876 3.031 1.651 3.1 2.44a1.1 1.1 0 0 1 -.57 1.042c-1.525 1.013-6.87.859-9.649-.62a3.909 3.909 0 0 1 -1.538-1.487c-1.634 1.493-2.953 4.166-4.156 8.356a.5.5 0 0 1 -.479.374zm5.425-9.331a2.944 2.944 0 0 0 1.22 1.217c2.256 1.2 6.7 1.475 8.361.8.341-.138.392-.252.392-.253s-.055-.563-2.5-1.61c-2.8-1.2-5.037-1.367-6.831-.517a5.479 5.479 0 0 0 -.642.363zm3.334-6.568c.087.025.173.048.259.07a32.91 32.91 0 0 0 9.933.743 22.663 22.663 0 0 0 -3.636-1.017 11.332 11.332 0 0 0 -6.556.204zm1.262-5.622a6.365 6.365 0 0 0 1.437.323c4.982.59 9.382-.108 10.04-.729-.17-.154-.841-.582-3.329-1.057a11.262 11.262 0 0 0 -8.148 1.463z" fill="#263238"/><path d="m206.528 408.248c.658-.211.438-.847-.3-.847h-13.537c-25.781-2.73-43.794.929-32.443 1.792s-.8.681-9.089 3.817 61.654 3.926 68.016 0c5.866-3.621-21.783-1.834-12.647-4.762z" fill="#263238"/><path d="m303.469 412.238-117.8-3.9-4.889-114.222 139.111 3.111z" fill="#407bff"/><path d="m222.452 410.053a.5.5 0 0 1 -.5-.459l-9.442-114.721a.5.5 0 0 1 1-.082l9.444 114.721a.5.5 0 0 1 -.458.539z" fill="#263238"/><path d="m303.469 412.238 31.662-4.82 9.972-106.21-25.215-3.986z" fill="#407bff"/><path d="m303.469 412.238 31.662-4.82 9.972-106.21-25.215-3.986z" opacity=".2"/><path d="m195.734 386.316-2.9-67.862a12.269 12.269 0 0 1 12.532-12.79l88.059 1.969a12.269 12.269 0 0 1 11.871 14l-9.763 68.391a12.269 12.269 0 0 1 -12.553 10.528l-75.39-2.5a12.271 12.271 0 0 1 -11.856-11.736z" fill="#263238"/><g fill="#fff"><path d="m205.247 326.488 13.624.434-.112 3.512-8.529-.271-.083 2.615 7.912.252-.107 3.355-7.912-.252-.1 3.244 8.776.279-.118 3.726-13.871-.442z"/><path d="m221.4 343.471.523-16.452 8.473.269a12.31 12.31 0 0 1 3.59.519 3.843 3.843 0 0 1 1.961 1.562 4.647 4.647 0 0 1 -1.638 6.593 6.146 6.146 0 0 1 -1.806.594 3.441 3.441 0 0 1 2.09 1.539 6.534 6.534 0 0 1 .68 1.045l2.31 4.846-5.745-.183-2.557-5.114a3.849 3.849 0 0 0 -.88-1.3 2.139 2.139 0 0 0 -1.234-.422l-.448-.014-.213 6.677zm5.418-9.623 2.143.068a7.663 7.663 0 0 0 1.354-.182 1.341 1.341 0 0 0 .841-.49 1.667 1.667 0 0 0 -.116-2.183 3.06 3.06 0 0 0 -1.883-.487l-2.233-.071z"/><path d="m239.277 344.04.524-16.452 8.473.269a12.3 12.3 0 0 1 3.589.519 3.843 3.843 0 0 1 1.961 1.562 4.647 4.647 0 0 1 -1.638 6.593 6.146 6.146 0 0 1 -1.806.594 5.121 5.121 0 0 1 1.3.648 5.175 5.175 0 0 1 .785.891 6.534 6.534 0 0 1 .68 1.045l2.31 4.846-5.744-.183-2.558-5.114a3.824 3.824 0 0 0 -.88-1.3 2.129 2.129 0 0 0 -1.233-.422l-.449-.014-.213 6.677zm5.418-9.624 2.143.069a7.764 7.764 0 0 0 1.354-.182 1.341 1.341 0 0 0 .841-.49 1.668 1.668 0 0 0 -.116-2.183 3.058 3.058 0 0 0 -1.883-.487l-2.233-.071z"/><path d="m256.316 336.359a7.793 7.793 0 0 1 8.766-8.248 8.612 8.612 0 0 1 6.26 2.407 8.317 8.317 0 0 1 2.025 6.248 10.137 10.137 0 0 1 -1.121 4.7 6.932 6.932 0 0 1 -2.9 2.784 9.274 9.274 0 0 1 -4.606.881 10.531 10.531 0 0 1 -4.579-1.033 6.937 6.937 0 0 1 -2.867-2.9 9.319 9.319 0 0 1 -.978-4.839zm5.083.184a5.522 5.522 0 0 0 .812 3.61 3.507 3.507 0 0 0 5.055.183 6.09 6.09 0 0 0 1.019-3.8 5.087 5.087 0 0 0 -.828-3.424 3.208 3.208 0 0 0 -2.508-1.153 3.089 3.089 0 0 0 -2.5 1.011 5.533 5.533 0 0 0 -1.049 3.573z"/><path d="m275.907 345.2.524-16.452 8.473.27a12.3 12.3 0 0 1 3.589.519 3.836 3.836 0 0 1 1.961 1.561 4.647 4.647 0 0 1 -1.638 6.593 6.117 6.117 0 0 1 -1.806.594 5.1 5.1 0 0 1 1.3.649 5.176 5.176 0 0 1 .785.891 6.355 6.355 0 0 1 .679 1.045l2.311 4.845-5.745-.182-2.557-5.115a3.849 3.849 0 0 0 -.88-1.3 2.129 2.129 0 0 0 -1.234-.421l-.448-.015-.213 6.678zm5.418-9.623 2.143.068a7.632 7.632 0 0 0 1.354-.181 1.345 1.345 0 0 0 .841-.49 1.668 1.668 0 0 0 -.116-2.183 3.051 3.051 0 0 0 -1.883-.487l-2.233-.071z"/><path d="m284 373.158a1.309 1.309 0 0 1 -.97-.427l-8.56-9.369-9.237 8.44a1.313 1.313 0 0 1 -1.855-.083l-8.56-9.369-9.237 8.439a1.313 1.313 0 0 1 -1.854-.083l-8.561-9.369-9.237 8.44a1.311 1.311 0 0 1 -1.854-.083l-8.561-9.369-9.237 8.44a1.312 1.312 0 1 1 -1.77-1.938l10.205-9.325a1.312 1.312 0 0 1 1.855.083l8.561 9.369 9.236-8.44a1.312 1.312 0 0 1 1.855.083l8.56 9.369 9.237-8.44a1.313 1.313 0 0 1 1.855.083l8.56 9.37 9.237-8.44a1.31 1.31 0 0 1 1.854.083l9.447 10.338a1.312 1.312 0 0 1 -.969 2.2z"/></g><path d="m125.75 414.667-6.258-2.985-5.583-27.167 3.03-3.337z" fill="#407bff"/><path d="m125.75 414.667 8.3-4.851-7.119-22.384-10-6.253z" fill="#407bff"/><path d="m125.75 414.667 8.3-4.851-7.119-22.384-10-6.253z" opacity=".2"/><path d="m261.949 419.605c-.236 0-.467 0-.691-.009a5 5 0 1 1 .274-10c7.7.252 24.006-4.481 33.319-13.521a4.99 4.99 0 0 1 2.046-1.2c15.788-4.738 21.664 4.834 21.907 5.244l-8.608 5.09a1.356 1.356 0 0 0 .115.183c-.1-.132-2.331-3.04-9.451-1.241-11.687 10.671-29.627 15.454-38.911 15.454z" fill="#263238"/><path d="m261.395 426.252-18.213-1.152-1.437-33.576 24.476.915z" fill="#407bff"/><path d="m261.395 426.252 4.257-4.237 2.639-20.937-2.07-8.636z" fill="#407bff"/><path d="m261.395 426.252 4.257-4.237 2.639-20.937-2.07-8.636z" opacity=".2"/><path d="m366.91 413.537a2.991 2.991 0 0 1 -1.813-.611c-10.394-7.9-24.445-21.926-29.837-35.457a3.042 3.042 0 0 1 -.171-.614c-2.629-15.632-5.141-48.54-5.247-49.934a3 3 0 1 1 5.983-.453c.026.336 2.562 33.566 5.128 49.073 5.377 13.156 19.957 26.666 27.775 32.607a3 3 0 0 1 -1.818 5.389z" fill="#263238"/><path d="m380.778 415.053c-2.32 0-4.949-1.052-7.815-3.125a3 3 0 0 1 3.518-4.862c2.477 1.793 3.83 1.987 4.3 1.987a3 3 0 0 1 0 6z" fill="#263238"/><path d="m373.8 411.842c3.21-9.535 16.37-7.651 20.9-6.235a48.068 48.068 0 0 1 11.069 4.8c2.455 1.605 2.495 4.285-.778 5.816-4.036 1.888-14.162.213-14.162.213 5.242 2.3-.01 5.972-9.2 2.36-2.992-1.173-8.958-3.46-7.829-6.954z" fill="#407bff"/><g fill="#263238"><path d="m341.862 331.036c-1.191 8.1-7.9 14.076-13.358 13.274s-5.685-8.038-4.493-16.139 3.349-14 8.806-13.2 10.236 7.964 9.045 16.065z"/><circle cx="209.875" cy="297.875" r=".819"/><path d="m218.208 303.778a.819.819 0 1 1 -.819-.82.819.819 0 0 1 .819.82z"/><path d="m219.125 400.683a.82.82 0 1 1 -.819-.82.819.819 0 0 1 .819.82z"/><path d="m226.639 406.586a.82.82 0 1 1 -.82-.82.82.82 0 0 1 .82.82z"/></g></g><g><g fill="#263238"><path d="m82.51 416.419a9.648 9.648 0 0 1 -7.333-3.949.5.5 0 1 1 .823-.57c1.866 2.7 5.979 4.131 7.805 3.281a1.4 1.4 0 0 0 .467-.339 6.069 6.069 0 0 1 -3.525-4.482c-.227-1.267-.407-2.98.639-3.216 1.434-.323 3.31 3.146 4.032 5.775a3.559 3.559 0 0 1 .13 1.343 4.489 4.489 0 0 0 1.787.14 1.93 1.93 0 0 0 1.374-.745 5.842 5.842 0 0 1 -2.3-4.189c-.388-2.735-.1-3.211.206-3.445a.674.674 0 0 1 .688-.078c1.069.455 2.365 4.334 2.613 6.53a3.09 3.09 0 0 1 0 .693 3.833 3.833 0 0 0 1.349.262 4.367 4.367 0 0 0 2.409-.629 3.445 3.445 0 0 1 -.4-.3c-1.038-.887-1.456-2.3-1.281-4.331.136-1.568.493-2.424 1.123-2.694a1.138 1.138 0 0 1 1.208.24 6.909 6.909 0 0 1 1.725 5.556 2.934 2.934 0 0 1 -.5 1.152c1.835.316 4.417-.2 6.643-.749a.5.5 0 1 1 .241.97c-2.71.67-5.627 1.215-7.688.618a5.685 5.685 0 0 1 -3.5 1.162 4.857 4.857 0 0 1 -1.639-.308 2.816 2.816 0 0 1 -2.124 1.271 5.42 5.42 0 0 1 -2.238-.192 2.276 2.276 0 0 1 -1.013.886 4.116 4.116 0 0 1 -1.721.337zm-.865-8.277a4.444 4.444 0 0 0 .085 2.043 5.08 5.08 0 0 0 2.839 3.709 3.034 3.034 0 0 0 -.116-.709c-.785-2.858-2.278-4.828-2.808-5.043zm5.572-.872a13.842 13.842 0 0 0 .177 2.058 5.147 5.147 0 0 0 1.519 3.223 15.786 15.786 0 0 0 -1.696-5.281zm6.291-.869s-.376.191-.521 1.861.16 2.823.934 3.484a2.6 2.6 0 0 0 .6.379 2.135 2.135 0 0 0 .543-1.028 6.253 6.253 0 0 0 -1.2-4.43c-.199-.224-.328-.267-.356-.267z"/><path d="m228.873 423.978 2.71-4.7-2.71-4.7h-2.9l1.639 4.7-1.639 4.7z"/><path d="m226.163 421.728a2.445 2.445 0 1 1 0-4.89l-4.607-.922-1.223 3.721 2.056 3.139z"/></g><g fill="#407bff"><path d="m226.557 414.578h-5.43l-2.71 4.7 2.71 4.7h5.43l2.71-4.7zm-2.71 7.15a2.445 2.445 0 1 1 2.44-2.45 2.454 2.454 0 0 1 -2.44 2.45z"/><path d="m417.889 414.265-2.013-3.491 2.013-3.49h2.155l-1.217 3.49 1.217 3.491z"/><path d="m419.9 412.594a1.816 1.816 0 1 0 0-3.632l3.422-.685.908 2.764-1.527 2.331z"/></g><path d="m419.61 407.284h4.033l2.012 3.49-2.012 3.491h-4.033l-2.013-3.491zm2.013 5.31a1.816 1.816 0 1 0 -1.813-1.82 1.823 1.823 0 0 0 1.813 1.82z" fill="#263238"/><path d="m342.948 418.9h4.518a2.145 2.145 0 0 0 2.139-2.139 2.146 2.146 0 0 0 -2.139-2.139h-4.518a2.145 2.145 0 0 0 -2.139 2.139 2.145 2.145 0 0 0 2.139 2.139z" fill="#263238"/><path d="m335.73 414.863a4.455 4.455 0 1 1 2 6.18 4.6 4.6 0 0 1 -2-6.18z" fill="#407bff"/><path d="m0 0h1.37v10.102h-1.37z" fill="#263238" transform="matrix(-.905 -.426 .426 -.905 338.217 421.62)"/></g></g></svg>