<svg height="500" viewBox="0 0 500 500" width="500" xmlns="http://www.w3.org/2000/svg" xmlns:xlink="http://www.w3.org/1999/xlink"><clipPath id="a"><path d="m0 0h500v500h-500z"/></clipPath><g clip-path="url(#a)"><g fill="#4b4b4b" transform="translate(36 10.246)"><path d="m504.16 183.326-17.24-17.233a26.778 26.778 0 0 0 -37.868 0l-16.127 16.136 55.1 55.1 16.135-16.129a26.794 26.794 0 0 0 0-37.874z" transform="translate(-47.8 -11.302)"/><path d="m18.474 178.378h46.386a18.486 18.486 0 0 0 0-36.972h-46.386a18.486 18.486 0 0 0 0 36.972z" transform="translate(0 -8.825)"/><path d="m0 0h34.583v116.557h-34.583z" transform="translate(22.83 181.3)"/><path d="m83.334 352.113a18.488 18.488 0 0 0 -18.474-18.491h-46.386a18.487 18.487 0 0 0 0 36.973h46.386a18.481 18.481 0 0 0 18.474-18.482z" transform="translate(0 -24.018)"/><path d="m0 0h155.624v25.937h-155.624z" transform="translate(120.871 141.148)"/><path d="m0 0h155.624v25.938h-155.624z" transform="translate(120.871 228.928)"/><path d="m0 0h95.104v25.937h-95.104z" transform="translate(123.589 316.709)"/><path d="m57.413 71.556a7.241 7.241 0 0 1 7.215-7.219h263.645a31.716 31.716 0 0 1 31.727 31.721v132.194l34.583-34.583v-97.611a66.311 66.311 0 0 0 -66.309-66.3h-263.646a41.808 41.808 0 0 0 -41.8 41.8v50.507h34.585z"/><path d="m360 415.943a31.732 31.732 0 0 1 -31.726 31.72h-263.646a7.242 7.242 0 0 1 -7.215-7.218v-50.507h-34.583v50.507a41.807 41.807 0 0 0 41.8 41.8h263.643a66.311 66.311 0 0 0 66.309-66.3v-58.276l-34.582 34.583z" transform="translate(0 -32.843)"/><path d="m281.81 333.344v55.1h55.1l136.09-136.087-55.1-55.1z" transform="translate(-47.8 -21.053)"/></g></g></svg>