<svg xmlns="http://www.w3.org/2000/svg" width="1369.775" height="512"><g><g><path d="M434.8 91.9h-29.22c-7.3 0-11.688 2.922-15.1 9.253L288.209 295.465 185.452 101.152c-3.409-6.331-7.792-9.253-15.1-9.253H142.6c-8.279 0-12.662 4.383-12.662 12.662v323.368c0 8.279 4.383 12.662 12.662 12.662h23.372c8.279 0 12.662-4.383 12.662-12.662V171.767l80.842 153.892c3.409 6.331 7.792 9.253 15.1 9.253h27.272c7.3 0 11.688-2.922 15.1-9.253L397.3 171.767v256.162c0 8.279 4.383 12.662 12.662 12.662H434.8c8.279 0 12.662-4.383 12.662-12.662V104.561c-.004-8.279-4.387-12.661-12.662-12.661z" fill="#f50"/><path d="M90 332a90 90 0 11-90 90 90 90 0 0190-90z" fill="#f50"/><g ><g transform="translate(395 89)" fill="#13848e" stroke="#707070"><rect width="57" height="352" rx="10" stroke="none"/><rect x=".5" y=".5" width="56" height="351" rx="9.5" fill="none"/></g><g fill="#fff"><path d="M451.328 94.5h-55.656L423.5 1.74l27.828 92.76z"/><path d="M423.5 3.48L396.344 94h54.312L423.5 3.48m0-3.48L452 95h-57l28.5-95z" fill="#707070"/></g><path d="M423.5 0L435 42h-23z" fill="rgba(112,112,112,0.75)"/></g><path  d="M688.925 208.715h-21.36c-7.565 0-11.57 4.005-11.57 11.57v128.6c0 36.49-32.485 68.975-58.74 68.975-28.035 0-43.165-16.91-43.165-72.98v-124.6c0-7.565-4.005-11.57-11.57-11.57h-20.47c-7.565 0-11.57 4.005-11.57 11.57v129.05c0 62.3 22.695 89 77.875 89 28.035 0 52.51-10.235 69.865-27.59v11.57c0 7.565 4.005 11.57 11.57 11.57h19.135c7.565 0 11.57-4.005 11.57-11.57V220.28c0-7.56-4.005-11.565-11.57-11.565zm84.55 203.365v.445c0 6.675 2.67 10.68 8.9 13.35 19.135 7.565 44.055 12.46 69.865 12.46 58.3 0 90.78-25.365 90.78-60.52 0-36.935-19.58-55.625-85.885-71.2-31.6-7.12-43.61-20.47-43.61-44.5 0-27.145 15.575-37.38 46.28-37.38 20.025 0 39.16 3.115 62.3 11.57 8.01 2.67 13.35-.445 13.35-8.9 0-6.675-3.115-11.125-9.345-12.9a239.667 239.667 0 00-68.975-10.235c-57.4 0-88.11 25.365-88.11 60.52 0 30.26 21.805 50.73 81.88 65.415 35.155 8.45 47.615 22.695 47.615 47.61 0 28.925-16.465 40.05-48.95 40.05-20.915 0-40.05-4.005-62.3-14.24-8.455-3.56-13.795-.445-13.795 8.455zm287.915-305.715h-22.25c-7.565 0-11.57 4-11.57 11.57v18.245c0 7.565 4.005 11.57 11.57 11.57h22.25c7.565 0 11.57-4.005 11.57-11.57v-18.245c0-7.565-4.005-11.57-11.57-11.57zm0 102.35h-22.25c-7.565 0-11.57 4.005-11.57 11.57v202.03c0 7.565 4.005 11.57 11.57 11.57h22.25c7.565 0 11.57-4.005 11.57-11.57v-202.03c0-7.565-4.005-11.57-11.57-11.57zm144.625-93.45h-24.475c-7.565 0-11.57 4.005-11.57 11.57v295.48c0 7.565 4 11.57 11.57 11.57h176.66c7.565 0 11.57-4.005 11.57-11.57v-.89c0-7.565-4.005-11.57-11.57-11.57h-140.615v-283.02c0-7.565-4.005-11.57-11.57-11.57z" fill="#f50"/></g></g></svg>
