<svg height="500" viewBox="0 0 500 500" width="500" xmlns="http://www.w3.org/2000/svg" xmlns:xlink="http://www.w3.org/1999/xlink"><clipPath id="a"><path d="m0 0h500v500h-500z"/></clipPath><g clip-path="url(#a)"><path d="m0 0h600v600h-600z" fill="none" transform="translate(-50 -50)"/><path d="m97.338 37.1v261.554a71.449 71.449 0 0 0 -41.577-3.242c-35.775 7.56-60.409 38.564-55.021 69.216 5.379 30.668 38.727 49.383 74.495 41.814 31.743-6.717 54.669-31.9 55.656-58.954h.2v-243.708l207.909-28.319v189.988a71.577 71.577 0 0 0 -41.57-3.225c-35.783 7.551-60.4 38.556-55.038 69.215 5.379 30.659 38.719 49.374 74.5 41.8 31.75-6.708 54.685-31.9 55.656-58.938h.2v-312.149z" fill="#4b4b4b" transform="translate(41 44.574)"/></g></svg>