<svg height="500" viewBox="0 0 500 500" width="500" xmlns="http://www.w3.org/2000/svg" xmlns:xlink="http://www.w3.org/1999/xlink"><clipPath id="a"><path d="m0 0h250v250h-250z"/></clipPath><clipPath id="b"><path d="m0 0h225v225h-225z"/></clipPath><clipPath id="c"><path d="m0 0h500v500h-500z"/></clipPath><g clip-path="url(#c)"><g clip-path="url(#a)" fill="#4b4b4b" transform="translate(125 30)"><path d="m349.867.746a42.667 42.667 0 1 0 42.667 42.666 42.667 42.667 0 0 0 -42.667-42.666z" transform="translate(-160.866 18.004)"/><path d="m71.621 192.608 58.833-32.055a52.494 52.494 0 0 1 -11.245-19.428l-57.249 34.587a37.58 37.58 0 1 0 9.662 16.9z" transform="translate(19.677 -63.884)"/><path d="m250.728 337.928a31.42 31.42 0 0 0 -22.891 9.887l-43.777-25.572a47.043 47.043 0 0 1 -8.654 15.558l44.848 23.66a31.518 31.518 0 1 0 30.474-23.533z" transform="translate(-83.986 -169.536)"/></g><g transform="translate(190 201)"><path d="m0 0h350v350h-350z" fill="none" opacity=".15"/><path d="m137.894 251.6c75.432 0 116.708-58.958 116.708-110 0-1.659 0-3.317-.08-4.976a81.065 81.065 0 0 0 20.478-20.054 87.119 87.119 0 0 1 -23.6 6.107 39.4 39.4 0 0 0 18.078-21.412 84.683 84.683 0 0 1 -26.077 9.349 42.141 42.141 0 0 0 -29.915-12.214c-22.638 0-41.036 17.341-41.036 38.677a40.38 40.38 0 0 0 1.04 8.821c-34.077-1.583-64.314-17.039-84.552-40.411a36.977 36.977 0 0 0 -5.519 19.452c0 13.42 7.279 25.257 18.238 32.193a43.437 43.437 0 0 1 -18.557-4.825v.528c0 18.7 14.159 34.38 32.877 37.923a42.283 42.283 0 0 1 -10.8 1.357 42.713 42.713 0 0 1 -7.679-.679c5.2 15.38 20.4 26.539 38.316 26.84a85.5 85.5 0 0 1 -50.955 16.587 83.694 83.694 0 0 1 -9.759-.528 121.916 121.916 0 0 0 62.794 17.265" fill="#4b4b4b"/></g><g clip-path="url(#b)" fill="#4b4b4b" transform="translate(20 260)"><path d="m314.207 42.361a52.4 52.4 0 0 0 -88.541-27.07l-24.844 24.844a12.832 12.832 0 1 0 18.147 18.147l24.844-24.856a26.775 26.775 0 1 1 37.858 37.874l-24.845 24.833a12.829 12.829 0 1 0 18.139 18.147l24.843-24.85a52.372 52.372 0 0 0 14.4-47.069z" transform="translate(-106.665 16.6)"/><path d="m96.2 256.831-24.85 24.85a26.774 26.774 0 1 1 -37.859-37.87l24.851-24.843a12.827 12.827 0 1 0 -18.142-18.134l-24.843 24.837a52.428 52.428 0 1 0 74.143 74.145l24.843-24.85a12.825 12.825 0 0 0 -18.143-18.135z" transform="translate(16.499 -106.634)"/><path d="m228.116 163.312a12.837 12.837 0 0 0 -18.141 0l-46.693 46.688a12.827 12.827 0 1 0 18.147 18.135l46.688-46.687a12.809 12.809 0 0 0 0-18.135z" transform="translate(-83.205 -83.187)"/></g></g></svg>